<?xml version="1.0" encoding="utf-8"?>
<!-- Generator: Adobe Illustrator 19.1.0, SVG Export Plug-In . SVG Version: 6.00 Build 0)  -->
<svg version="1.1" id="BMKSolutions_x5F_Logo" xmlns="http://www.w3.org/2000/svg" xmlns:xlink="http://www.w3.org/1999/xlink"
	 x="0px" y="0px" viewBox="0 0 2560 2560" style="enable-background:new 0 0 2560 2560;" xml:space="preserve">
<style type="text/css">
	.st0{display:none;}
	.st1{display:inline;}
	.st2{display:inline;fill:#FFFFFF;}
	.st3{display:inline;fill:#939393;}
	.st4{fill:#2E99F9;}
</style>
<g id="Icon_x5F_BlackFull" class="st0">
	<path class="st1" d="M651.4,2224.4c108.9-79.5,62.4-143.2,99-240.3c19.5-51.6,77.1-52.1,198.1,68.9l331.2,331.2l1104.4-1104.4
		l-337.4-337.4c-121-121-120.6-178.7-68.9-198.1c97.1-36.7,160.9,9.9,240.3-99c136.1-186.6-122.9-445.6-309.5-309.5
		c-108.9,79.5-62.4,143.2-99,240.3c-19.5,51.6-77.1,52.1-198.1-68.9l-331.2-331.2L175.9,1280.3l337.4,337.4
		c121,121,120.6,178.7,68.9,198.1c-97.1,36.7-160.8-9.8-240.3,99C205.8,2101.4,464.8,2360.5,651.4,2224.4z M1061.3,1776.6
		c-38.7-38.7-139-139-139-139s-100.3-100.3-139-139L564.7,1280l217.4-217.4c78-78,115.3-77.5,128.1-43.9
		c24.1,63.1-5.8,104.2,65.1,156.1c121.4,88.8,288.3-78,199.4-199.4c-51.9-70.8-93-41-156.1-65.1c-29.6-11.3-33.4-41.7,19.6-102.3
		l-0.7-0.7L1280,564.7l218.6,218.6c5.5,5.5,10.6,10.8,15.3,15.9l246.8,246.8c5.1,4.7,10.4,9.8,15.9,15.3l218.6,218.6l-242.5,242.5
		l-0.7-0.7c-60.6,53-91,49.1-102.3,19.5c-24.1-63.1,5.8-104.2-65-156.1c-121.4-88.9-288.3,78-199.4,199.4c51.9,70.8,93,41,156.1,65
		c33.6,12.8,34.1,50.2-43.9,128.1L1280,1995.3L1061.3,1776.6z"/>
</g>
<g id="Icon_x5F_WhiteFull" class="st0">
	<path class="st2" d="M651.4,2224.4c108.9-79.5,62.4-143.2,99-240.3c19.5-51.6,77.1-52.1,198.1,68.9l331.2,331.2l1104.4-1104.4
		l-337.4-337.4c-121-121-120.6-178.7-68.9-198.1c97.1-36.7,160.9,9.9,240.3-99c136.1-186.6-122.9-445.6-309.5-309.5
		c-108.9,79.5-62.4,143.2-99,240.3c-19.5,51.6-77.1,52.1-198.1-68.9l-331.2-331.2L175.9,1280.3l337.4,337.4
		c121,121,120.6,178.7,68.9,198.1c-97.1,36.7-160.8-9.8-240.3,99C205.8,2101.4,464.8,2360.5,651.4,2224.4z M1061.3,1776.6
		c-38.7-38.7-139-139-139-139s-100.3-100.3-139-139L564.7,1280l217.4-217.4c78-78,115.3-77.5,128.1-43.9
		c24.1,63.1-5.8,104.2,65.1,156.1c121.4,88.8,288.3-78,199.4-199.4c-51.9-70.8-93-41-156.1-65.1c-29.6-11.3-33.4-41.7,19.6-102.3
		l-0.7-0.7L1280,564.7l218.6,218.6c5.5,5.5,10.6,10.8,15.3,15.9l246.8,246.8c5.1,4.7,10.4,9.8,15.9,15.3l218.6,218.6l-242.5,242.5
		l-0.7-0.7c-60.6,53-91,49.1-102.3,19.5c-24.1-63.1,5.8-104.2-65-156.1c-121.4-88.9-288.3,78-199.4,199.4c51.9,70.8,93,41,156.1,65
		c33.6,12.8,34.1,50.2-43.9,128.1L1280,1995.3L1061.3,1776.6z"/>
</g>
<g id="Icon_x5F_ColorGrey" class="st0">
	<path class="st3" d="M651.4,2224.4c108.9-79.5,62.4-143.2,99-240.3c19.5-51.6,77.1-52.1,198.1,68.9l331.2,331.2l1104.4-1104.4
		l-337.4-337.4c-121-121-120.6-178.7-68.9-198.1c97.1-36.7,160.9,9.9,240.3-99c136.1-186.6-122.9-445.6-309.5-309.5
		c-108.9,79.5-62.4,143.2-99,240.3c-19.5,51.6-77.1,52.1-198.1-68.9l-331.2-331.2L175.9,1280.3l337.4,337.4
		c121,121,120.6,178.7,68.9,198.1c-97.1,36.7-160.8-9.8-240.3,99C205.8,2101.4,464.8,2360.5,651.4,2224.4z M1061.3,1776.6
		c-38.7-38.7-139-139-139-139s-100.3-100.3-139-139L564.7,1280l217.4-217.4c78-78,115.3-77.5,128.1-43.9
		c24.1,63.1-5.8,104.2,65.1,156.1c121.4,88.8,288.3-78,199.4-199.4c-51.9-70.8-93-41-156.1-65.1c-29.6-11.3-33.4-41.7,19.6-102.3
		l-0.7-0.7L1280,564.7l218.6,218.6c5.5,5.5,10.6,10.8,15.3,15.9l246.8,246.8c5.1,4.7,10.4,9.8,15.9,15.3l218.6,218.6l-242.5,242.5
		l-0.7-0.7c-60.6,53-91,49.1-102.3,19.5c-24.1-63.1,5.8-104.2-65-156.1c-121.4-88.9-288.3,78-199.4,199.4c51.9,70.8,93,41,156.1,65
		c33.6,12.8,34.1,50.2-43.9,128.1L1280,1995.3L1061.3,1776.6z"/>
</g>
<g id="Icon_x5F_Color">
	<path class="st4" d="M651.4,2224.4c108.9-79.5,62.4-143.2,99-240.3c19.5-51.6,77.1-52.1,198.1,68.9l331.2,331.2l1104.4-1104.4
		l-337.4-337.4c-121-121-120.6-178.7-68.9-198.1c97.1-36.7,160.9,9.9,240.3-99c136.1-186.6-122.9-445.6-309.5-309.5
		c-108.9,79.5-62.4,143.2-99,240.3c-19.5,51.6-77.1,52.1-198.1-68.9l-331.2-331.2L175.9,1280.3l337.4,337.4
		c121,121,120.6,178.7,68.9,198.1c-97.1,36.7-160.8-9.8-240.3,99C205.8,2101.4,464.8,2360.5,651.4,2224.4z M1061.3,1776.6
		c-38.7-38.7-139-139-139-139s-100.3-100.3-139-139L564.7,1280l217.4-217.4c78-78,115.3-77.5,128.1-43.9
		c24.1,63.1-5.8,104.2,65.1,156.1c121.4,88.8,288.3-78,199.4-199.4c-51.9-70.8-93-41-156.1-65.1c-29.6-11.3-33.4-41.7,19.6-102.3
		l-0.7-0.7L1280,564.7l218.6,218.6c5.5,5.5,10.6,10.8,15.3,15.9l246.8,246.8c5.1,4.7,10.4,9.8,15.9,15.3l218.6,218.6l-242.5,242.5
		l-0.7-0.7c-60.6,53-91,49.1-102.3,19.5c-24.1-63.1,5.8-104.2-65-156.1c-121.4-88.9-288.3,78-199.4,199.4c51.9,70.8,93,41,156.1,65
		c33.6,12.8,34.1,50.2-43.9,128.1L1280,1995.3L1061.3,1776.6z"/>
</g>
</svg>
