<svg xmlns="http://www.w3.org/2000/svg" width="2614.129" height="408.632" viewBox="0 0 2614.129 408.632">
  <g id="bmk-logo-full-white" transform="translate(-2501.651 132)">
    <path id="Path_1" data-name="Path 1" d="M263.893,555.061c20.153-14.712,11.545-26.5,18.32-44.468,3.608-9.55,14.268-9.642,36.659,12.75l61.289,61.289L584.537,380.256,522.1,317.82c-22.391-22.391-22.317-33.068-12.75-36.659,17.968-6.791,29.774,1.833,44.468-18.32,25.18-34.529-22.743-82.455-57.279-57.27-20.153,14.712-11.545,26.5-18.32,44.468-3.608,9.548-14.268,9.642-36.659-12.75L380.275,176,175.9,380.354l62.436,62.435c22.391,22.391,22.317,33.07,12.75,36.659-17.968,6.792-29.763-1.813-44.468,18.32C181.432,532.3,229.362,580.241,263.893,555.061Zm75.852-82.87-25.723-25.723L288.3,420.745l-40.453-40.453,40.226-40.226c14.431-14.431,21.336-14.342,23.7-8.117,4.461,11.676-1.073,19.281,12.048,28.887,22.465,16.433,53.35-14.431,36.9-36.9-9.6-13.1-17.21-7.587-28.887-12.046-5.476-2.091-6.18-7.717,3.628-18.931l44.746-45.024,40.458,40.444q1.526,1.526,2.832,2.942l45.671,45.671q1.416,1.3,2.942,2.832l40.453,40.453-45,44.746c-11.214,9.807-16.841,9.086-18.931,3.608-4.459-11.676,1.082-19.283-12.028-28.887-22.465-16.451-53.35,14.431-36.9,36.9,9.6,13.1,17.211,7.587,28.887,12.028,6.218,2.368,6.313,9.29-8.117,23.706l-40.249,40.285Z" transform="translate(2325.751 -308)" fill="#fff"/>
    <path id="Path_2488" data-name="Path 2488" d="M10.16,0H130.3a106.241,106.241,0,0,0,22.733-2.413A53.539,53.539,0,0,0,172.593-10.8a42.657,42.657,0,0,0,13.589-16q5.08-10.033,5.08-25.273,0-16.764-8.763-28.829T157.988-98.806q15.748-6.858,23.241-19.812t7.493-29.972a44.118,44.118,0,0,0-4.953-21.336,45.836,45.836,0,0,0-13.208-15.24,60.921,60.921,0,0,0-18.8-9.271,74.03,74.03,0,0,0-21.463-3.175H10.16ZM117.348-115.062H51.816V-165.1h65.532q14.478,0,21.463,6.6t6.985,18.288q0,11.684-6.985,18.415T117.348-115.062Zm0,82.55H51.816V-82.55h65.532q14.478,0,21.463,6.6T145.8-57.658q0,11.938-6.985,18.542T117.348-32.512ZM260.6,0V-147.574h1.016L311.912,0H353.06L403.1-147.574h1.27V0h41.656V-197.612H383.54l-51.054,152.4-51.054-152.4H218.948V0ZM515.62-97.79h3.81L592.582,0H645.16L560.832-102.108l84.328-95.5H594.106l-74.676,90.17h-3.81v-90.17H473.964V0H515.62Zm429.26-99.822H818.642a71.712,71.712,0,0,0-17.907,2.54,52.541,52.541,0,0,0-18.415,9.017,51.566,51.566,0,0,0-14.478,17.526Q762-157.48,762-140.208t5.842,28.448A51.263,51.263,0,0,0,782.32-94.107a52.54,52.54,0,0,0,18.415,9.017,71.712,71.712,0,0,0,17.907,2.54H879.6a25.936,25.936,0,0,1,18.161,6.858,22.7,22.7,0,0,1,7.493,17.526,23.241,23.241,0,0,1-2.032,9.779,23.664,23.664,0,0,1-5.461,7.62,26.456,26.456,0,0,1-8.128,5.08A26.448,26.448,0,0,1,879.6-33.782H770.382V0H898.906a67.765,67.765,0,0,0,17.653-2.667,53.218,53.218,0,0,0,18.415-9.271,52.574,52.574,0,0,0,14.478-17.78q5.842-11.176,5.842-28.448t-5.842-28.575a52.269,52.269,0,0,0-14.478-17.907,53.218,53.218,0,0,0-18.415-9.271,67.766,67.766,0,0,0-17.653-2.667H837.692a35.907,35.907,0,0,1-9.652-1.27,22.942,22.942,0,0,1-8.128-4.064,19.145,19.145,0,0,1-5.588-7.239,26.556,26.556,0,0,1-2.032-11.049q0-11.938,7.62-17.78a28.4,28.4,0,0,1,17.78-5.842H944.88ZM1054.354-114.3q10.668,0,17.653,3.3a27.954,27.954,0,0,1,11.176,9.271,37.019,37.019,0,0,1,5.842,13.97,84.77,84.77,0,0,1,1.651,17.145,84.77,84.77,0,0,1-1.651,17.145,37.018,37.018,0,0,1-5.842,13.97,27.954,27.954,0,0,1-11.176,9.271q-6.985,3.3-17.653,3.3t-17.653-3.3a27.954,27.954,0,0,1-11.176-9.271,37.018,37.018,0,0,1-5.842-13.97,84.774,84.774,0,0,1-1.651-17.145,84.774,84.774,0,0,1,1.651-17.145,37.018,37.018,0,0,1,5.842-13.97A27.954,27.954,0,0,1,1036.7-111Q1043.686-114.3,1054.354-114.3ZM979.17-70.612q0,18.034,5.334,31.75a62.2,62.2,0,0,0,15.113,22.987,63.443,63.443,0,0,0,23.622,13.97,96.454,96.454,0,0,0,31.115,4.7,96.454,96.454,0,0,0,31.115-4.7,63.445,63.445,0,0,0,23.622-13.97A62.206,62.206,0,0,0,1124.2-38.862q5.334-13.716,5.334-31.75t-5.334-31.75a62.206,62.206,0,0,0-15.113-22.987,63.445,63.445,0,0,0-23.622-13.97,96.454,96.454,0,0,0-31.115-4.7,96.454,96.454,0,0,0-31.115,4.7,63.444,63.444,0,0,0-23.622,13.97A62.2,62.2,0,0,0,984.5-102.362Q979.17-88.646,979.17-70.612ZM1192.784,0V-197.612h-36.576V0Zm128.27-29.718h-38.1q-6.6,0-10.668-2.159a17.474,17.474,0,0,1-6.223-5.207,17.765,17.765,0,0,1-2.921-6.6,31.652,31.652,0,0,1-.762-6.6v-90.932H1225.8v98.3A40.256,40.256,0,0,0,1229.995-24a41.1,41.1,0,0,0,10.922,13.335,47.677,47.677,0,0,0,14.859,8A50.4,50.4,0,0,0,1271.524,0h86.106V-141.224h-36.576Zm88.646-81.788V-46.99a83.215,83.215,0,0,0,2.032,19.05,36.24,36.24,0,0,0,7.112,14.859,32.965,32.965,0,0,0,13.716,9.652Q1441.2,0,1454.658,0h26.924V-29.718h-13.97q-8.128,0-12.446-2.921a16.654,16.654,0,0,1-6.223-7.493,31.64,31.64,0,0,1-2.286-10.033q-.381-5.461-.381-10.541v-50.8h35.306v-29.718h-35.306v-56.388H1409.7v56.388h-25.4v29.718ZM1544.828,0V-141.224h-36.576V0Zm0-155.448V-189.23h-36.576v33.782ZM1646.682-114.3q10.668,0,17.653,3.3a27.954,27.954,0,0,1,11.176,9.271,37.02,37.02,0,0,1,5.842,13.97A84.77,84.77,0,0,1,1683-70.612a84.77,84.77,0,0,1-1.651,17.145,37.02,37.02,0,0,1-5.842,13.97,27.954,27.954,0,0,1-11.176,9.271q-6.985,3.3-17.653,3.3t-17.653-3.3a27.954,27.954,0,0,1-11.176-9.271,37.02,37.02,0,0,1-5.842-13.97,84.77,84.77,0,0,1-1.651-17.145,84.77,84.77,0,0,1,1.651-17.145,37.02,37.02,0,0,1,5.842-13.97A27.954,27.954,0,0,1,1629.029-111Q1636.014-114.3,1646.682-114.3ZM1571.5-70.612q0,18.034,5.334,31.75a62.205,62.205,0,0,0,15.113,22.987,63.444,63.444,0,0,0,23.622,13.97,96.455,96.455,0,0,0,31.115,4.7,96.454,96.454,0,0,0,31.115-4.7,63.444,63.444,0,0,0,23.622-13.97,62.205,62.205,0,0,0,15.113-22.987q5.334-13.716,5.334-31.75t-5.334-31.75a62.205,62.205,0,0,0-15.113-22.987,63.444,63.444,0,0,0-23.622-13.97,96.454,96.454,0,0,0-31.115-4.7,96.454,96.454,0,0,0-31.115,4.7,63.444,63.444,0,0,0-23.622,13.97,62.205,62.205,0,0,0-15.113,22.987Q1571.5-88.646,1571.5-70.612Zm263.4-70.612h-86.36V0h36.576V-111.506h38.354a23.276,23.276,0,0,1,10.414,2.032,17.568,17.568,0,0,1,6.35,5.08,16.763,16.763,0,0,1,3.048,6.6,31.653,31.653,0,0,1,.762,6.6V0h36.576V-98.552a40.885,40.885,0,0,0-3.175-15.621,41.448,41.448,0,0,0-9.144-13.716,46.5,46.5,0,0,0-14.351-9.652A46.912,46.912,0,0,0,1834.9-141.224Zm117.348,84.582h39.37a47.6,47.6,0,0,1,6.985.508,18.562,18.562,0,0,1,6.223,2.032,11.46,11.46,0,0,1,4.445,4.318,14.382,14.382,0,0,1,1.651,7.366,14.382,14.382,0,0,1-1.651,7.366,11.46,11.46,0,0,1-4.445,4.318A18.562,18.562,0,0,1,1998.6-28.7a47.6,47.6,0,0,1-6.985.508h-83.058V0h97.536q21.336,0,32.512-11.811t11.176-30.607a48.548,48.548,0,0,0-2.921-17.018,37.782,37.782,0,0,0-8.382-13.462,38.042,38.042,0,0,0-13.589-8.763,51.434,51.434,0,0,0-18.8-3.175h-39.37a47.6,47.6,0,0,1-6.985-.508,20.557,20.557,0,0,1-6.223-1.9,10.588,10.588,0,0,1-4.445-4.191,14.382,14.382,0,0,1-1.651-7.366,14.382,14.382,0,0,1,1.651-7.366,11.46,11.46,0,0,1,4.445-4.318,18.562,18.562,0,0,1,6.223-2.032,47.6,47.6,0,0,1,6.985-.508h75.438v-28.194h-89.916a51.435,51.435,0,0,0-18.8,3.175,38.04,38.04,0,0,0-13.589,8.763,37.779,37.779,0,0,0-8.382,13.462,48.548,48.548,0,0,0-2.921,17.018q0,18.542,11.176,30.353T1952.244-56.642Z" transform="translate(3066 169.612)" fill="#fff"/>
  </g>
</svg>
